STARTFONT 2.1
FONT -Monotype-Bookman Old Style-Bold-R-Normal--10-100-75-75-P-53-iso8859-2
SIZE 10 75 75
FONTBOUNDINGBOX 16 13 -2 -3

STARTPROPERTIES 22
FOUNDRY "Monotype"
FAMILY_NAME "Bookman Old Style"
WEIGHT_NAME "Bold"
SLANT "R"
SETWIDTH_NAME "Normal"
ADD_STYLE_NAME ""
PIXEL_SIZE 10
POINT_SIZE 100
RESOLUTION_X 75
RESOLUTION_Y 75
SPACING "P"
AVERAGE_WIDTH 53
CHARSET_REGISTRY "iso8859"
CHARSET_ENCODING "2"
COPYRIGHT "Copyright (c) 1996 Monotype Typography Ltd."
CAP_HEIGHT 8
X_HEIGHT 6
WEIGHT 10
QUAD_WIDTH 6
DEFAULT_CHAR 160
FONT_DESCENT 3
FONT_ASCENT 10
ENDPROPERTIES

CHARS 191

STARTCHAR space
ENCODING 32
SWIDTH 340 0
DWIDTH 3 0
BBX 0 0 0 0
BITMAP
ENDCHAR

STARTCHAR exclam
ENCODING 33
SWIDTH 360 0
DWIDTH 4 0
BBX 2 7 1 0
BITMAP
C0
C0
40
40
00
40
40
ENDCHAR

STARTCHAR quotedbl
ENCODING 34
SWIDTH 420 0
DWIDTH 4 0
BBX 3 3 1 4
BITMAP
A0
A0
A0
ENDCHAR

STARTCHAR numbersign
ENCODING 35
SWIDTH 600 0
DWIDTH 6 0
BBX 6 7 0 0
BITMAP
28
28
FC
50
F8
50
50
ENDCHAR

STARTCHAR dollar
ENCODING 36
SWIDTH 660 0
DWIDTH 7 0
BBX 6 9 1 -1
BITMAP
10
78
CC
60
30
18
CC
78
10
ENDCHAR

STARTCHAR percent
ENCODING 37
SWIDTH 940 0
DWIDTH 9 0
BBX 9 7 0 0
BITMAP
6200
9200
9400
6B00
1480
1480
2300
ENDCHAR

STARTCHAR ampersand
ENCODING 38
SWIDTH 800 0
DWIDTH 8 0
BBX 7 7 1 0
BITMAP
30
50
66
D4
D8
DA
76
ENDCHAR

STARTCHAR quoteright
ENCODING 39
SWIDTH 320 0
DWIDTH 3 0
BBX 2 4 1 3
BITMAP
40
40
40
80
ENDCHAR

STARTCHAR parenleft
ENCODING 40
SWIDTH 320 0
DWIDTH 3 0
BBX 3 9 0 -2
BITMAP
20
40
C0
80
80
80
C0
40
20
ENDCHAR

STARTCHAR parenright
ENCODING 41
SWIDTH 320 0
DWIDTH 3 0
BBX 3 9 0 -2
BITMAP
80
40
60
20
20
20
60
40
80
ENDCHAR

STARTCHAR asterisk
ENCODING 42
SWIDTH 460 0
DWIDTH 5 0
BBX 5 5 0 2
BITMAP
20
20
F8
20
50
ENDCHAR

STARTCHAR plus
ENCODING 43
SWIDTH 600 0
DWIDTH 6 0
BBX 5 5 1 1
BITMAP
20
20
F8
20
20
ENDCHAR

STARTCHAR comma
ENCODING 44
SWIDTH 340 0
DWIDTH 3 0
BBX 2 4 1 -2
BITMAP
40
40
40
80
ENDCHAR

STARTCHAR minus
ENCODING 45
SWIDTH 600 0
DWIDTH 6 0
BBX 4 1 1 3
BITMAP
F0
ENDCHAR

STARTCHAR period
ENCODING 46
SWIDTH 340 0
DWIDTH 3 0
BBX 1 2 1 0
BITMAP
80
80
ENDCHAR

STARTCHAR slash
ENCODING 47
SWIDTH 600 0
DWIDTH 6 0
BBX 4 9 1 -2
BITMAP
10
10
20
20
60
40
40
80
80
ENDCHAR

STARTCHAR zero
ENCODING 48
SWIDTH 660 0
DWIDTH 7 0
BBX 6 7 1 0
BITMAP
30
48
CC
CC
CC
48
30
ENDCHAR

STARTCHAR one
ENCODING 49
SWIDTH 660 0
DWIDTH 7 0
BBX 4 7 2 0
BITMAP
E0
60
60
60
60
60
F0
ENDCHAR

STARTCHAR two
ENCODING 50
SWIDTH 660 0
DWIDTH 7 0
BBX 6 7 1 0
BITMAP
78
CC
8C
18
30
64
FC
ENDCHAR

STARTCHAR three
ENCODING 51
SWIDTH 660 0
DWIDTH 7 0
BBX 6 7 1 0
BITMAP
38
6C
0C
18
8C
CC
78
ENDCHAR

STARTCHAR four
ENCODING 52
SWIDTH 660 0
DWIDTH 7 0
BBX 6 7 1 0
BITMAP
18
38
58
98
FC
18
18
ENDCHAR

STARTCHAR five
ENCODING 53
SWIDTH 660 0
DWIDTH 7 0
BBX 6 7 1 0
BITMAP
7C
40
70
18
8C
CC
78
ENDCHAR

STARTCHAR six
ENCODING 54
SWIDTH 660 0
DWIDTH 7 0
BBX 6 7 1 0
BITMAP
18
30
60
F8
CC
CC
78
ENDCHAR

STARTCHAR seven
ENCODING 55
SWIDTH 660 0
DWIDTH 7 0
BBX 6 7 1 0
BITMAP
7C
CC
18
18
30
30
30
ENDCHAR

STARTCHAR eight
ENCODING 56
SWIDTH 660 0
DWIDTH 7 0
BBX 6 7 1 0
BITMAP
78
C4
FC
78
8C
CC
78
ENDCHAR

STARTCHAR nine
ENCODING 57
SWIDTH 660 0
DWIDTH 7 0
BBX 6 7 1 0
BITMAP
78
CC
CC
7C
18
30
60
ENDCHAR

STARTCHAR colon
ENCODING 58
SWIDTH 340 0
DWIDTH 3 0
BBX 1 5 1 0
BITMAP
80
80
00
80
80
ENDCHAR

STARTCHAR semicolon
ENCODING 59
SWIDTH 340 0
DWIDTH 3 0
BBX 2 7 0 -2
BITMAP
40
40
00
40
40
40
80
ENDCHAR

STARTCHAR less
ENCODING 60
SWIDTH 600 0
DWIDTH 6 0
BBX 4 5 1 1
BITMAP
10
60
80
60
10
ENDCHAR

STARTCHAR equal
ENCODING 61
SWIDTH 600 0
DWIDTH 6 0
BBX 4 3 1 2
BITMAP
F0
00
F0
ENDCHAR

STARTCHAR greater
ENCODING 62
SWIDTH 600 0
DWIDTH 6 0
BBX 4 5 1 1
BITMAP
80
60
10
60
80
ENDCHAR

STARTCHAR question
ENCODING 63
SWIDTH 660 0
DWIDTH 7 0
BBX 5 7 1 0
BITMAP
F0
98
18
70
00
40
40
ENDCHAR

STARTCHAR at
ENCODING 64
SWIDTH 820 0
DWIDTH 8 0
BBX 9 9 0 -2
BITMAP
1F00
6080
4E80
9280
B480
BD00
A680
4100
3E00
ENDCHAR

STARTCHAR A
ENCODING 65
SWIDTH 720 0
DWIDTH 7 0
BBX 7 7 0 0
BITMAP
10
38
28
2C
7C
46
EE
ENDCHAR

STARTCHAR B
ENCODING 66
SWIDTH 720 0
DWIDTH 8 0
BBX 7 7 0 0
BITMAP
FC
66
66
7C
66
66
FC
ENDCHAR

STARTCHAR C
ENCODING 67
SWIDTH 740 0
DWIDTH 7 0
BBX 6 7 1 0
BITMAP
78
CC
C0
C0
C0
CC
78
ENDCHAR

STARTCHAR D
ENCODING 68
SWIDTH 780 0
DWIDTH 8 0
BBX 7 7 0 0
BITMAP
FC
66
66
66
66
66
FC
ENDCHAR

STARTCHAR E
ENCODING 69
SWIDTH 720 0
DWIDTH 7 0
BBX 7 7 0 0
BITMAP
FC
66
68
78
68
66
FC
ENDCHAR

STARTCHAR F
ENCODING 70
SWIDTH 680 0
DWIDTH 7 0
BBX 7 7 0 0
BITMAP
FC
66
68
78
68
60
F0
ENDCHAR

STARTCHAR G
ENCODING 71
SWIDTH 780 0
DWIDTH 8 0
BBX 7 7 1 0
BITMAP
78
CC
C0
DE
CC
CC
74
ENDCHAR

STARTCHAR H
ENCODING 72
SWIDTH 820 0
DWIDTH 8 0
BBX 8 7 0 0
BITMAP
F7
66
66
7E
66
66
EF
ENDCHAR

STARTCHAR I
ENCODING 73
SWIDTH 400 0
DWIDTH 4 0
BBX 4 7 0 0
BITMAP
F0
60
60
60
60
60
F0
ENDCHAR

STARTCHAR J
ENCODING 74
SWIDTH 640 0
DWIDTH 7 0
BBX 7 7 0 0
BITMAP
1E
0C
0C
0C
CC
CC
78
ENDCHAR

STARTCHAR K
ENCODING 75
SWIDTH 800 0
DWIDTH 8 0
BBX 8 7 0 0
BITMAP
F7
66
68
7C
6C
66
F7
ENDCHAR

STARTCHAR L
ENCODING 76
SWIDTH 640 0
DWIDTH 6 0
BBX 6 7 0 0
BITMAP
F0
60
60
60
60
6C
F8
ENDCHAR

STARTCHAR M
ENCODING 77
SWIDTH 940 0
DWIDTH 9 0
BBX 9 7 0 0
BITMAP
E380
6300
5700
5700
5B00
5B00
D380
ENDCHAR

STARTCHAR N
ENCODING 78
SWIDTH 740 0
DWIDTH 7 0
BBX 7 7 0 0
BITMAP
EE
64
54
54
5C
4C
EC
ENDCHAR

STARTCHAR O
ENCODING 79
SWIDTH 800 0
DWIDTH 8 0
BBX 6 7 1 0
BITMAP
78
CC
CC
CC
CC
CC
78
ENDCHAR

STARTCHAR P
ENCODING 80
SWIDTH 660 0
DWIDTH 7 0
BBX 7 7 0 0
BITMAP
FC
66
66
7C
60
60
F0
ENDCHAR

STARTCHAR Q
ENCODING 81
SWIDTH 800 0
DWIDTH 8 0
BBX 7 9 1 -2
BITMAP
78
CC
CC
CC
CC
CC
78
18
0E
ENDCHAR

STARTCHAR R
ENCODING 82
SWIDTH 780 0
DWIDTH 8 0
BBX 8 7 0 0
BITMAP
FC
66
66
78
6C
66
F7
ENDCHAR

STARTCHAR S
ENCODING 83
SWIDTH 660 0
DWIDTH 7 0
BBX 5 7 1 0
BITMAP
70
D8
C0
70
38
98
70
ENDCHAR

STARTCHAR T
ENCODING 84
SWIDTH 700 0
DWIDTH 6 0
BBX 6 7 0 0
BITMAP
FC
B4
B4
30
30
30
78
ENDCHAR

STARTCHAR U
ENCODING 85
SWIDTH 740 0
DWIDTH 7 0
BBX 7 7 0 0
BITMAP
EE
64
64
64
64
64
38
ENDCHAR

STARTCHAR V
ENCODING 86
SWIDTH 720 0
DWIDTH 7 0
BBX 7 7 0 0
BITMAP
EE
66
64
28
38
30
10
ENDCHAR

STARTCHAR W
ENCODING 87
SWIDTH 940 0
DWIDTH 9 0
BBX 9 7 0 0
BITMAP
ED80
6980
6D00
2D00
3E00
3600
1200
ENDCHAR

STARTCHAR X
ENCODING 88
SWIDTH 780 0
DWIDTH 8 0
BBX 8 7 0 0
BITMAP
F7
62
3C
18
2C
46
EF
ENDCHAR

STARTCHAR Y
ENCODING 89
SWIDTH 700 0
DWIDTH 7 0
BBX 8 7 0 0
BITMAP
F7
62
34
18
18
18
3C
ENDCHAR

STARTCHAR Z
ENCODING 90
SWIDTH 640 0
DWIDTH 6 0
BBX 6 7 0 0
BITMAP
7C
CC
18
30
60
CC
F8
ENDCHAR

STARTCHAR bracketleft
ENCODING 91
SWIDTH 300 0
DWIDTH 3 0
BBX 2 9 1 -2
BITMAP
C0
80
80
80
80
80
80
80
C0
ENDCHAR

STARTCHAR backslash
ENCODING 92
SWIDTH 600 0
DWIDTH 6 0
BBX 4 9 1 -2
BITMAP
80
80
40
40
60
20
20
10
10
ENDCHAR

STARTCHAR bracketright
ENCODING 93
SWIDTH 300 0
DWIDTH 3 0
BBX 2 9 0 -2
BITMAP
C0
40
40
40
40
40
40
40
C0
ENDCHAR

STARTCHAR asciicircum
ENCODING 94
SWIDTH 600 0
DWIDTH 6 0
BBX 5 4 1 3
BITMAP
20
70
50
88
ENDCHAR

STARTCHAR underscore
ENCODING 95
SWIDTH 500 0
DWIDTH 5 0
BBX 5 1 0 -2
BITMAP
F8
ENDCHAR

STARTCHAR quoteleft
ENCODING 96
SWIDTH 320 0
DWIDTH 3 0
BBX 2 4 1 3
BITMAP
40
80
80
80
ENDCHAR

STARTCHAR a
ENCODING 97
SWIDTH 580 0
DWIDTH 6 0
BBX 6 5 1 0
BITMAP
70
98
78
D8
6C
ENDCHAR

STARTCHAR b
ENCODING 98
SWIDTH 600 0
DWIDTH 6 0
BBX 6 7 0 0
BITMAP
E0
60
78
6C
6C
6C
58
ENDCHAR

STARTCHAR c
ENCODING 99
SWIDTH 580 0
DWIDTH 6 0
BBX 5 5 1 0
BITMAP
70
D8
C0
C8
70
ENDCHAR

STARTCHAR d
ENCODING 100
SWIDTH 640 0
DWIDTH 6 0
BBX 6 7 1 0
BITMAP
38
18
78
D8
D8
D8
7C
ENDCHAR

STARTCHAR e
ENCODING 101
SWIDTH 580 0
DWIDTH 6 0
BBX 5 5 1 0
BITMAP
70
D8
F8
C0
78
ENDCHAR

STARTCHAR f
ENCODING 102
SWIDTH 380 0
DWIDTH 4 0
BBX 5 7 0 0
BITMAP
38
60
F0
60
60
60
F0
ENDCHAR

STARTCHAR g
ENCODING 103
SWIDTH 580 0
DWIDTH 6 0
BBX 6 7 1 -2
BITMAP
74
D8
70
C0
F8
98
70
ENDCHAR

STARTCHAR h
ENCODING 104
SWIDTH 680 0
DWIDTH 7 0
BBX 7 7 0 0
BITMAP
E0
60
78
6C
6C
6C
EE
ENDCHAR

STARTCHAR i
ENCODING 105
SWIDTH 360 0
DWIDTH 4 0
BBX 4 7 0 0
BITMAP
60
00
E0
60
60
60
F0
ENDCHAR

STARTCHAR j
ENCODING 106
SWIDTH 340 0
DWIDTH 3 0
BBX 4 9 -1 -2
BITMAP
30
00
70
30
30
30
30
F0
60
ENDCHAR

STARTCHAR k
ENCODING 107
SWIDTH 660 0
DWIDTH 7 0
BBX 7 7 0 0
BITMAP
E0
60
6C
68
78
6C
EE
ENDCHAR

STARTCHAR l
ENCODING 108
SWIDTH 340 0
DWIDTH 3 0
BBX 4 7 0 0
BITMAP
E0
60
60
60
60
60
F0
ENDCHAR

STARTCHAR m
ENCODING 109
SWIDTH 1000 0
DWIDTH 10 0
BBX 10 5 0 0
BITMAP
ED80
7F80
6D80
6D80
EDC0
ENDCHAR

STARTCHAR n
ENCODING 110
SWIDTH 680 0
DWIDTH 7 0
BBX 7 5 0 0
BITMAP
EC
7C
6C
6C
EE
ENDCHAR

STARTCHAR o
ENCODING 111
SWIDTH 620 0
DWIDTH 6 0
BBX 5 5 1 0
BITMAP
70
D8
D8
D8
70
ENDCHAR

STARTCHAR p
ENCODING 112
SWIDTH 640 0
DWIDTH 6 0
BBX 6 7 0 -2
BITMAP
F8
6C
6C
6C
78
60
F0
ENDCHAR

STARTCHAR q
ENCODING 113
SWIDTH 620 0
DWIDTH 6 0
BBX 6 7 1 -2
BITMAP
78
D8
D8
D8
78
18
3C
ENDCHAR

STARTCHAR r
ENCODING 114
SWIDTH 460 0
DWIDTH 5 0
BBX 5 5 0 0
BITMAP
E8
78
60
60
F0
ENDCHAR

STARTCHAR s
ENCODING 115
SWIDTH 520 0
DWIDTH 5 0
BBX 4 5 1 0
BITMAP
70
C0
F0
30
E0
ENDCHAR

STARTCHAR t
ENCODING 116
SWIDTH 460 0
DWIDTH 5 0
BBX 5 6 0 0
BITMAP
20
F0
60
60
60
38
ENDCHAR

STARTCHAR u
ENCODING 117
SWIDTH 660 0
DWIDTH 7 0
BBX 7 5 0 0
BITMAP
EC
6C
6C
6C
36
ENDCHAR

STARTCHAR v
ENCODING 118
SWIDTH 600 0
DWIDTH 6 0
BBX 6 5 0 0
BITMAP
EC
68
70
30
20
ENDCHAR

STARTCHAR w
ENCODING 119
SWIDTH 800 0
DWIDTH 8 0
BBX 8 5 0 0
BITMAP
EB
6A
7E
36
24
ENDCHAR

STARTCHAR x
ENCODING 120
SWIDTH 600 0
DWIDTH 6 0
BBX 6 5 0 0
BITMAP
EC
68
30
58
DC
ENDCHAR

STARTCHAR y
ENCODING 121
SWIDTH 620 0
DWIDTH 6 0
BBX 6 7 0 -2
BITMAP
EC
68
68
30
30
E0
60
ENDCHAR

STARTCHAR z
ENCODING 122
SWIDTH 560 0
DWIDTH 6 0
BBX 6 5 0 0
BITMAP
78
D8
30
6C
F8
ENDCHAR

STARTCHAR braceleft
ENCODING 123
SWIDTH 320 0
DWIDTH 3 0
BBX 3 9 0 -2
BITMAP
20
40
40
40
80
40
40
40
20
ENDCHAR

STARTCHAR bar
ENCODING 124
SWIDTH 600 0
DWIDTH 6 0
BBX 1 9 3 -2
BITMAP
80
80
80
80
80
80
80
80
80
ENDCHAR

STARTCHAR braceright
ENCODING 125
SWIDTH 320 0
DWIDTH 3 0
BBX 3 9 0 -2
BITMAP
80
40
40
40
20
40
40
40
80
ENDCHAR

STARTCHAR asciitilde
ENCODING 126
SWIDTH 600 0
DWIDTH 6 0
BBX 5 2 1 2
BITMAP
E8
B8
ENDCHAR

STARTCHAR space
ENCODING 160
SWIDTH 340 0
DWIDTH 4 0
BBX 0 0 0 0
BITMAP
ENDCHAR

STARTCHAR Aogonek
ENCODING 161
SWIDTH 720 0
DWIDTH 7 0
BBX 7 9 0 -2
BITMAP
10
38
28
2C
7C
46
EE
04
06
ENDCHAR

STARTCHAR breve
ENCODING 162
SWIDTH 500 0
DWIDTH 5 0
BBX 4 2 1 6
BITMAP
90
60
ENDCHAR

STARTCHAR Lslash
ENCODING 163
SWIDTH 640 0
DWIDTH 6 0
BBX 6 7 0 0
BITMAP
F0
60
70
60
E0
6C
F8
ENDCHAR

STARTCHAR currency
ENCODING 164
SWIDTH 600 0
DWIDTH 6 0
BBX 5 5 1 1
BITMAP
A8
D8
88
D8
A8
ENDCHAR

STARTCHAR Lcaron
ENCODING 165
SWIDTH 640 0
DWIDTH 6 0
BBX 6 7 0 0
BITMAP
F4
64
68
60
60
6C
F8
ENDCHAR

STARTCHAR Sacute
ENCODING 166
SWIDTH 660 0
DWIDTH 7 0
BBX 5 10 1 0
BITMAP
10
20
00
70
D8
C0
70
38
98
70
ENDCHAR

STARTCHAR section
ENCODING 167
SWIDTH 600 0
DWIDTH 6 0
BBX 5 9 1 -2
BITMAP
70
C8
60
90
C8
68
38
88
70
ENDCHAR

STARTCHAR dieresis
ENCODING 168
SWIDTH 500 0
DWIDTH 5 0
BBX 3 1 1 6
BITMAP
A0
ENDCHAR

STARTCHAR Scaron
ENCODING 169
SWIDTH 660 0
DWIDTH 7 0
BBX 5 10 1 0
BITMAP
50
20
00
70
D8
C0
70
38
98
70
ENDCHAR

STARTCHAR Scommaaccent
ENCODING 170
SWIDTH 660 0
DWIDTH 7 0
BBX 5 10 1 -3
BITMAP
70
D8
C0
70
38
98
70
00
20
40
ENDCHAR

STARTCHAR Tcaron
ENCODING 171
SWIDTH 700 0
DWIDTH 6 0
BBX 6 10 0 0
BITMAP
28
10
00
FC
B4
B4
30
30
30
78
ENDCHAR

STARTCHAR Zacute
ENCODING 172
SWIDTH 640 0
DWIDTH 6 0
BBX 6 10 0 0
BITMAP
08
10
00
7C
CC
18
30
60
CC
F8
ENDCHAR

STARTCHAR hyphen
ENCODING 173
SWIDTH 360 0
DWIDTH 4 0
BBX 2 1 1 2
BITMAP
C0
ENDCHAR

STARTCHAR Zcaron
ENCODING 174
SWIDTH 640 0
DWIDTH 6 0
BBX 6 10 0 0
BITMAP
28
10
00
7C
CC
18
30
60
CC
F8
ENDCHAR

STARTCHAR Zdotaccent
ENCODING 175
SWIDTH 640 0
DWIDTH 6 0
BBX 6 9 0 0
BITMAP
10
00
7C
CC
18
30
60
CC
F8
ENDCHAR

STARTCHAR degree
ENCODING 176
SWIDTH 400 0
DWIDTH 4 0
BBX 3 3 1 4
BITMAP
40
A0
40
ENDCHAR

STARTCHAR aogonek
ENCODING 177
SWIDTH 580 0
DWIDTH 6 0
BBX 6 7 1 -2
BITMAP
70
98
78
D8
6C
08
0C
ENDCHAR

STARTCHAR ogonek
ENCODING 178
SWIDTH 320 0
DWIDTH 3 0
BBX 2 2 1 -2
BITMAP
80
C0
ENDCHAR

STARTCHAR lslash
ENCODING 179
SWIDTH 340 0
DWIDTH 3 0
BBX 4 7 0 0
BITMAP
E0
60
70
60
E0
60
F0
ENDCHAR

STARTCHAR acute
ENCODING 180
SWIDTH 400 0
DWIDTH 4 0
BBX 2 2 1 6
BITMAP
40
80
ENDCHAR

STARTCHAR lcaron
ENCODING 181
SWIDTH 476 0
DWIDTH 4 0
BBX 5 7 0 0
BITMAP
E8
68
70
60
60
60
F0
ENDCHAR

STARTCHAR sacute
ENCODING 182
SWIDTH 520 0
DWIDTH 5 0
BBX 4 8 1 0
BITMAP
10
20
00
70
C0
F0
30
E0
ENDCHAR

STARTCHAR caron
ENCODING 183
SWIDTH 500 0
DWIDTH 5 0
BBX 3 2 1 6
BITMAP
A0
40
ENDCHAR

STARTCHAR commaaccent
ENCODING 184
SWIDTH 333 0
DWIDTH 3 0
BBX 2 2 1 -3
BITMAP
40
80
ENDCHAR

STARTCHAR scaron
ENCODING 185
SWIDTH 520 0
DWIDTH 5 0
BBX 4 8 1 0
BITMAP
10
20
00
70
C0
F0
30
E0
ENDCHAR

STARTCHAR scommaaccent
ENCODING 186
SWIDTH 520 0
DWIDTH 5 0
BBX 4 8 1 -3
BITMAP
70
C0
F0
30
E0
00
40
80
ENDCHAR

STARTCHAR tcaron
ENCODING 187
SWIDTH 566 0
DWIDTH 5 0
BBX 5 7 0 0
BITMAP
08
28
F0
60
60
60
38
ENDCHAR

STARTCHAR zacute
ENCODING 188
SWIDTH 560 0
DWIDTH 6 0
BBX 6 8 0 0
BITMAP
10
20
00
78
D8
30
6C
F8
ENDCHAR

STARTCHAR hungarumlaut
ENCODING 189
SWIDTH 440 0
DWIDTH 4 0
BBX 4 2 0 6
BITMAP
50
A0
ENDCHAR

STARTCHAR zcaron
ENCODING 190
SWIDTH 560 0
DWIDTH 6 0
BBX 6 8 0 0
BITMAP
28
10
00
78
D8
30
6C
F8
ENDCHAR

STARTCHAR zdotaccent
ENCODING 191
SWIDTH 560 0
DWIDTH 6 0
BBX 6 7 0 0
BITMAP
10
00
78
D8
30
6C
F8
ENDCHAR

STARTCHAR Racute
ENCODING 192
SWIDTH 780 0
DWIDTH 8 0
BBX 8 10 0 0
BITMAP
08
10
00
FC
66
66
78
6C
66
F7
ENDCHAR

STARTCHAR Aacute
ENCODING 193
SWIDTH 720 0
DWIDTH 7 0
BBX 7 10 0 0
BITMAP
08
10
00
10
38
28
2C
7C
46
EE
ENDCHAR

STARTCHAR Acircumflex
ENCODING 194
SWIDTH 720 0
DWIDTH 7 0
BBX 7 10 0 0
BITMAP
10
28
00
10
38
28
2C
7C
46
EE
ENDCHAR

STARTCHAR Abreve
ENCODING 195
SWIDTH 720 0
DWIDTH 7 0
BBX 7 10 0 0
BITMAP
24
18
00
10
38
28
2C
7C
46
EE
ENDCHAR

STARTCHAR Adieresis
ENCODING 196
SWIDTH 720 0
DWIDTH 7 0
BBX 7 9 0 0
BITMAP
28
00
10
38
28
2C
7C
46
EE
ENDCHAR

STARTCHAR Lacute
ENCODING 197
SWIDTH 640 0
DWIDTH 6 0
BBX 6 10 0 0
BITMAP
10
20
00
F0
60
60
60
60
6C
F8
ENDCHAR

STARTCHAR Cacute
ENCODING 198
SWIDTH 740 0
DWIDTH 7 0
BBX 6 10 1 0
BITMAP
10
20
00
78
CC
C0
C0
C0
CC
78
ENDCHAR

STARTCHAR Ccedilla
ENCODING 199
SWIDTH 740 0
DWIDTH 7 0
BBX 6 10 1 -3
BITMAP
78
CC
C0
C0
C0
CC
78
20
10
60
ENDCHAR

STARTCHAR Ccaron
ENCODING 200
SWIDTH 740 0
DWIDTH 7 0
BBX 6 10 1 0
BITMAP
50
20
00
78
CC
C0
C0
C0
CC
78
ENDCHAR

STARTCHAR Eacute
ENCODING 201
SWIDTH 720 0
DWIDTH 7 0
BBX 7 10 0 0
BITMAP
08
10
00
FC
66
68
78
68
66
FC
ENDCHAR

STARTCHAR Eogonek
ENCODING 202
SWIDTH 720 0
DWIDTH 7 0
BBX 7 9 0 -2
BITMAP
FC
66
68
78
68
66
FC
04
06
ENDCHAR

STARTCHAR Edieresis
ENCODING 203
SWIDTH 720 0
DWIDTH 7 0
BBX 7 9 0 0
BITMAP
28
00
FC
66
68
78
68
66
FC
ENDCHAR

STARTCHAR Ecaron
ENCODING 204
SWIDTH 720 0
DWIDTH 7 0
BBX 7 10 0 0
BITMAP
28
10
00
FC
66
68
78
68
66
FC
ENDCHAR

STARTCHAR Iacute
ENCODING 205
SWIDTH 400 0
DWIDTH 4 0
BBX 4 10 0 0
BITMAP
10
20
00
F0
60
60
60
60
60
F0
ENDCHAR

STARTCHAR Icircumflex
ENCODING 206
SWIDTH 400 0
DWIDTH 4 0
BBX 4 10 0 0
BITMAP
20
50
00
F0
60
60
60
60
60
F0
ENDCHAR

STARTCHAR Dcaron
ENCODING 207
SWIDTH 780 0
DWIDTH 8 0
BBX 7 10 0 0
BITMAP
28
10
00
FC
66
66
66
66
66
FC
ENDCHAR

STARTCHAR Dcroat
ENCODING 208
SWIDTH 780 0
DWIDTH 8 0
BBX 7 7 0 0
BITMAP
FC
66
66
F6
66
66
FC
ENDCHAR

STARTCHAR Nacute
ENCODING 209
SWIDTH 740 0
DWIDTH 7 0
BBX 7 10 0 0
BITMAP
08
10
00
EE
64
54
54
5C
4C
EC
ENDCHAR

STARTCHAR Ncaron
ENCODING 210
SWIDTH 740 0
DWIDTH 7 0
BBX 7 10 0 0
BITMAP
28
10
00
EE
64
54
54
5C
4C
EC
ENDCHAR

STARTCHAR Oacute
ENCODING 211
SWIDTH 800 0
DWIDTH 8 0
BBX 6 10 1 0
BITMAP
08
10
00
78
CC
CC
CC
CC
CC
78
ENDCHAR

STARTCHAR Ocircumflex
ENCODING 212
SWIDTH 800 0
DWIDTH 8 0
BBX 6 10 1 0
BITMAP
10
28
00
78
CC
CC
CC
CC
CC
78
ENDCHAR

STARTCHAR Ohungarumlaut
ENCODING 213
SWIDTH 800 0
DWIDTH 8 0
BBX 6 10 1 0
BITMAP
14
28
00
78
CC
CC
CC
CC
CC
78
ENDCHAR

STARTCHAR Odieresis
ENCODING 214
SWIDTH 800 0
DWIDTH 8 0
BBX 6 9 1 0
BITMAP
48
00
78
CC
CC
CC
CC
CC
78
ENDCHAR

STARTCHAR multiply
ENCODING 215
SWIDTH 600 0
DWIDTH 6 0
BBX 4 5 1 1
BITMAP
90
F0
60
F0
90
ENDCHAR

STARTCHAR Rcaron
ENCODING 216
SWIDTH 780 0
DWIDTH 8 0
BBX 8 10 0 0
BITMAP
28
10
00
FC
66
66
78
6C
66
F7
ENDCHAR

STARTCHAR Uring
ENCODING 217
SWIDTH 740 0
DWIDTH 7 0
BBX 7 10 0 0
BITMAP
10
28
10
EE
64
64
64
64
64
38
ENDCHAR

STARTCHAR Uacute
ENCODING 218
SWIDTH 740 0
DWIDTH 7 0
BBX 7 10 0 0
BITMAP
08
10
00
EE
64
64
64
64
64
38
ENDCHAR

STARTCHAR Uhungarumlaut
ENCODING 219
SWIDTH 740 0
DWIDTH 7 0
BBX 7 10 0 0
BITMAP
14
28
00
EE
64
64
64
64
64
38
ENDCHAR

STARTCHAR Udieresis
ENCODING 220
SWIDTH 740 0
DWIDTH 7 0
BBX 7 9 0 0
BITMAP
28
00
EE
64
64
64
64
64
38
ENDCHAR

STARTCHAR Yacute
ENCODING 221
SWIDTH 700 0
DWIDTH 7 0
BBX 8 10 0 0
BITMAP
04
08
00
F7
62
34
18
18
18
3C
ENDCHAR

STARTCHAR Tcommaaccent
ENCODING 222
SWIDTH 700 0
DWIDTH 6 0
BBX 6 10 0 -3
BITMAP
FC
B4
B4
30
30
30
78
00
10
20
ENDCHAR

STARTCHAR germandbls
ENCODING 223
SWIDTH 660 0
DWIDTH 7 0
BBX 5 7 1 0
BITMAP
70
D0
E0
D0
C8
E8
D0
ENDCHAR

STARTCHAR racute
ENCODING 224
SWIDTH 460 0
DWIDTH 5 0
BBX 5 8 0 0
BITMAP
10
20
00
E8
78
60
60
F0
ENDCHAR

STARTCHAR aacute
ENCODING 225
SWIDTH 580 0
DWIDTH 6 0
BBX 6 8 1 0
BITMAP
10
20
00
70
98
78
D8
6C
ENDCHAR

STARTCHAR acircumflex
ENCODING 226
SWIDTH 580 0
DWIDTH 6 0
BBX 6 8 1 0
BITMAP
20
50
00
70
98
78
D8
6C
ENDCHAR

STARTCHAR abreve
ENCODING 227
SWIDTH 580 0
DWIDTH 6 0
BBX 6 8 1 0
BITMAP
48
30
00
70
98
78
D8
6C
ENDCHAR

STARTCHAR adieresis
ENCODING 228
SWIDTH 580 0
DWIDTH 6 0
BBX 6 7 1 0
BITMAP
50
00
70
98
78
D8
6C
ENDCHAR

STARTCHAR lacute
ENCODING 229
SWIDTH 340 0
DWIDTH 3 0
BBX 4 10 0 0
BITMAP
20
40
00
E0
60
60
60
60
60
F0
ENDCHAR

STARTCHAR cacute
ENCODING 230
SWIDTH 580 0
DWIDTH 6 0
BBX 5 8 1 0
BITMAP
10
20
00
70
D8
C0
C8
70
ENDCHAR

STARTCHAR ccedilla
ENCODING 231
SWIDTH 580 0
DWIDTH 6 0
BBX 5 8 1 -3
BITMAP
70
D8
C0
C8
70
20
10
60
ENDCHAR

STARTCHAR ccaron
ENCODING 232
SWIDTH 580 0
DWIDTH 6 0
BBX 5 8 1 0
BITMAP
50
20
00
70
D8
C0
C8
70
ENDCHAR

STARTCHAR eacute
ENCODING 233
SWIDTH 580 0
DWIDTH 6 0
BBX 5 8 1 0
BITMAP
10
20
00
70
D8
F8
C0
78
ENDCHAR

STARTCHAR eogonek
ENCODING 234
SWIDTH 580 0
DWIDTH 6 0
BBX 5 7 1 -2
BITMAP
70
D8
F8
C0
78
20
30
ENDCHAR

STARTCHAR edieresis
ENCODING 235
SWIDTH 580 0
DWIDTH 6 0
BBX 5 7 1 0
BITMAP
50
00
70
D8
F8
C0
78
ENDCHAR

STARTCHAR ecaron
ENCODING 236
SWIDTH 580 0
DWIDTH 6 0
BBX 5 8 1 0
BITMAP
50
20
00
70
D8
F8
C0
78
ENDCHAR

STARTCHAR iacute
ENCODING 237
SWIDTH 360 0
DWIDTH 4 0
BBX 4 8 0 0
BITMAP
20
40
00
E0
60
60
60
F0
ENDCHAR

STARTCHAR icircumflex
ENCODING 238
SWIDTH 360 0
DWIDTH 4 0
BBX 4 8 0 0
BITMAP
40
A0
00
E0
60
60
60
F0
ENDCHAR

STARTCHAR dcaron
ENCODING 239
SWIDTH 758 0
DWIDTH 7 0
BBX 7 7 1 0
BITMAP
3A
1A
7C
D8
D8
D8
7C
ENDCHAR

STARTCHAR dcroat
ENCODING 240
SWIDTH 640 0
DWIDTH 6 0
BBX 6 7 1 0
BITMAP
3C
18
78
D8
D8
D8
7C
ENDCHAR

STARTCHAR nacute
ENCODING 241
SWIDTH 680 0
DWIDTH 7 0
BBX 7 8 0 0
BITMAP
08
10
00
EC
7C
6C
6C
EE
ENDCHAR

STARTCHAR ncaron
ENCODING 242
SWIDTH 680 0
DWIDTH 7 0
BBX 7 8 0 0
BITMAP
28
10
00
EC
7C
6C
6C
EE
ENDCHAR

STARTCHAR oacute
ENCODING 243
SWIDTH 620 0
DWIDTH 6 0
BBX 5 8 1 0
BITMAP
10
20
00
70
D8
D8
D8
70
ENDCHAR

STARTCHAR ocircumflex
ENCODING 244
SWIDTH 620 0
DWIDTH 6 0
BBX 5 8 1 0
BITMAP
20
50
00
70
D8
D8
D8
70
ENDCHAR

STARTCHAR ohungarumlaut
ENCODING 245
SWIDTH 620 0
DWIDTH 6 0
BBX 5 8 1 0
BITMAP
28
50
00
70
D8
D8
D8
70
ENDCHAR

STARTCHAR odieresis
ENCODING 246
SWIDTH 620 0
DWIDTH 6 0
BBX 5 7 1 0
BITMAP
50
00
70
D8
D8
D8
70
ENDCHAR

STARTCHAR divide
ENCODING 247
SWIDTH 600 0
DWIDTH 6 0
BBX 5 5 1 1
BITMAP
20
00
F8
00
20
ENDCHAR

STARTCHAR rcaron
ENCODING 248
SWIDTH 460 0
DWIDTH 5 0
BBX 5 8 0 0
BITMAP
50
20
00
E8
78
60
60
F0
ENDCHAR

STARTCHAR uring
ENCODING 249
SWIDTH 660 0
DWIDTH 7 0
BBX 7 9 0 0
BITMAP
10
28
10
00
EC
6C
6C
6C
36
ENDCHAR

STARTCHAR uacute
ENCODING 250
SWIDTH 660 0
DWIDTH 7 0
BBX 7 8 0 0
BITMAP
08
10
00
EC
6C
6C
6C
36
ENDCHAR

STARTCHAR uhungarumlaut
ENCODING 251
SWIDTH 660 0
DWIDTH 7 0
BBX 7 8 0 0
BITMAP
14
28
00
EC
6C
6C
6C
36
ENDCHAR

STARTCHAR udieresis
ENCODING 252
SWIDTH 660 0
DWIDTH 7 0
BBX 7 7 0 0
BITMAP
28
00
EC
6C
6C
6C
36
ENDCHAR

STARTCHAR yacute
ENCODING 253
SWIDTH 620 0
DWIDTH 6 0
BBX 6 10 0 -2
BITMAP
08
10
00
EC
68
68
30
30
E0
60
ENDCHAR

STARTCHAR tcommaaccent
ENCODING 254
SWIDTH 460 0
DWIDTH 5 0
BBX 5 9 0 -3
BITMAP
20
F0
60
60
60
38
00
20
40
ENDCHAR

STARTCHAR dotaccent
ENCODING 255
SWIDTH 320 0
DWIDTH 3 0
BBX 1 1 1 6
BITMAP
80
ENDCHAR
ENDFONT
